<?xml version="1.0" standalone="no"?>
<!DOCTYPE svg PUBLIC "-//W3C//DTD SVG 20010904//EN"
 "http://www.w3.org/TR/2001/REC-SVG-20010904/DTD/svg10.dtd">
<svg version="1.0" xmlns="http://www.w3.org/2000/svg"
 width="64.000000pt" height="64.000000pt" viewBox="0 0 64.000000 64.000000"
 preserveAspectRatio="xMidYMid meet">

<g transform="translate(0.000000,64.000000) scale(0.100000,-0.100000)"
fill="#000000" stroke="none">
<path d="M523 614 c-19 -19 -24 -32 -20 -52 5 -23 -3 -36 -50 -84 -49 -49 -59
-55 -76 -46 -11 6 -39 8 -62 5 -39 -6 -44 -3 -84 37 -26 27 -40 48 -36 58 13
33 -47 62 -73 36 -28 -28 -7 -78 33 -78 12 0 38 -18 60 -40 36 -36 38 -43 40
-102 l1 -63 -65 -67 c-63 -66 -65 -67 -106 -61 -35 4 -46 2 -64 -18 -26 -28
-27 -59 -3 -90 41 -50 131 -11 118 51 -4 23 6 38 69 100 70 69 76 73 100 62
22 -10 25 -17 25 -65 0 -48 -3 -56 -30 -75 -37 -28 -40 -69 -7 -100 28 -27 57
-28 88 -4 32 27 31 79 -4 106 -24 19 -27 29 -27 78 0 52 2 56 26 62 22 6 34 0
65 -30 26 -25 39 -47 39 -64 0 -31 17 -50 45 -50 59 0 60 83 0 85 -16 1 -42
18 -69 44 -41 40 -43 45 -33 72 8 21 8 37 0 58 -10 28 -8 32 46 85 43 42 60
53 71 46 8 -5 23 -10 33 -10 24 0 67 44 67 70 0 12 -11 32 -25 45 -31 32 -59
32 -92 -1z m77 -14 c11 -11 20 -24 20 -30 0 -5 -9 -19 -20 -30 -11 -11 -24
-20 -30 -20 -5 0 -19 9 -30 20 -11 11 -20 25 -20 30 0 6 9 19 20 30 11 11 25
20 30 20 6 0 19 -9 30 -20z m-433 -56 c8 -21 -13 -42 -28 -27 -13 13 -5 43 11
43 6 0 13 -7 17 -16z m214 -142 c47 -39 16 -122 -45 -122 -61 0 -88 82 -40
119 33 26 55 26 85 3z m162 -248 c-6 -16 -29 -19 -38 -4 -4 6 -1 17 5 26 15
18 42 0 33 -22z m-439 -35 c23 -34 3 -69 -41 -69 -33 0 -48 35 -28 66 19 30
49 31 69 3z m274 -47 c4 -42 -28 -61 -64 -37 -30 19 -31 49 -3 69 31 21 63 6
67 -32z"/>
</g>
</svg>
